<svg width="42" height="50" viewBox="0 0 42 50" fill="none" xmlns="http://www.w3.org/2000/svg">
<path d="M8.22845 43.7814C5.26572 41.0428 2.12703 37.0749 0.719011 32.7184C0.410427 31.7636 0.214558 29.8827 0.101763 27.5276H21.0884V49.9592C21.0884 50.4227 11.5356 46.8383 8.22845 43.7814Z" fill="#5FA2C0"/>
<path d="M33.8103 43.7702C36.7413 41.0266 39.8463 37.0515 41.2392 32.6871C41.5445 31.7306 41.7382 29.8463 41.8498 27.4869H21.0884V49.9592C21.0883 50.4235 30.5387 46.8327 33.8103 43.7702Z" fill="#7EBCD8"/>
<path d="M30.3745 5.15114C24.3385 3.43586 21.0884 0 21.0884 0V27.4869H41.8498C42.2474 19.0807 41.6017 4.64305 41.2392 4.64305C40.7749 4.64305 36.4104 6.86642 30.3745 5.15114Z" fill="#6BACC9"/>
<path d="M11.8023 5.15114C17.8382 3.43586 21.0884 0 21.0884 0V27.4869L0.101763 27.5276C-0.295795 19.1214 0.574966 4.64305 0.937513 4.64305C1.40182 4.64305 5.76629 6.86642 11.8023 5.15114Z" fill="#7DC0DE"/>
</svg>
