<svg width="500" height="500" viewBox="0 0 500 500" fill="none" xmlns="http://www.w3.org/2000/svg">
<g clip-path="url(#clip0_203_3)">
<path d="M500 0H0V500H500V0Z" fill="#6BACC9"/>
<path d="M63.569 46.1483L57.094 59.4633L57.7863 51.131L63.569 46.1483ZM53.1381 24.1223L62.3775 37.7859L52.0964 30.0036L53.1381 24.1223ZM50.2173 29.1452L33.0822 23.9065L51.3755 22.6059L50.2173 29.1452ZM31.7652 52.6264L50.5337 32.4091L55.5373 49.787L31.7652 52.6264ZM64.9974 42.2775L57.3529 48.8644L52.7974 33.0426L64.9974 42.2775ZM55.7256 51.7787L54.7708 63.2707L33.145 54.4758L55.7256 51.7787ZM49.186 30.9213L30.0594 51.5243L28.7166 24.6632L49.186 30.9213ZM26.8425 27.2309L28.0821 52.0279L17.9978 45.419L26.8425 27.2309ZM29.2192 62.4816L20.3334 49.341L28.243 54.5246L29.2192 62.4816ZM51.2969 64.017L31.5944 65.4178L30.3788 55.5099L51.2969 64.017Z" stroke="#96DCFB" stroke-width="2"/>
<path d="M91.2234 116.555L106.787 98.4887L130.214 102.934L138.078 125.446L122.514 143.511L99.0871 139.066L91.2234 116.555Z" stroke="#96DCFB" stroke-width="2"/>
<path d="M184 35.0774L204.651 23.1547L225.301 35.0774V58.9226L204.651 70.8453L184 58.9226V35.0774Z" stroke="#96DCFB" stroke-width="2"/>
<path d="M98 17.0774L118.651 5.1547L139.301 17.0774V40.9226L118.651 52.8453L98 40.9226V17.0774Z" stroke="#96DCFB" stroke-width="2"/>
<path d="M234 97.0774L254.651 85.1547L275.301 97.0774V120.923L254.651 132.845L234 120.923V97.0774Z" stroke="#96DCFB" stroke-width="2"/>
<path d="M368 185.077L388.651 173.155L409.301 185.077V208.923L388.651 220.845L368 208.923V185.077Z" stroke="#96DCFB" stroke-width="2"/>
<path d="M373 362.077L393.651 350.155L414.301 362.077V385.923L393.651 397.845L373 385.923V362.077Z" stroke="#96DCFB" stroke-width="2"/>
<path d="M440 400.077L460.651 388.155L481.301 400.077V423.923L460.651 435.845L440 423.923V400.077Z" stroke="#96DCFB" stroke-width="2"/>
<path d="M316 406.077L336.651 394.155L357.301 406.077V429.923L336.651 441.845L316 429.923V406.077Z" stroke="#96DCFB" stroke-width="2"/>
<path d="M288 348.077L308.651 336.155L329.301 348.077V371.923L308.651 383.845L288 371.923V348.077Z" stroke="#96DCFB" stroke-width="2"/>
<path d="M199 392.077L219.651 380.155L240.301 392.077V415.923L219.651 427.845L199 415.923V392.077Z" stroke="#96DCFB" stroke-width="2"/>
<path d="M240 290.077L260.651 278.155L281.301 290.077V313.923L260.651 325.845L240 313.923V290.077Z" stroke="#96DCFB" stroke-width="2"/>
<path d="M132 450.077L152.651 438.155L173.301 450.077V473.923L152.651 485.845L132 473.923V450.077Z" stroke="#96DCFB" stroke-width="2"/>
<path d="M82 392.077L102.651 380.155L123.301 392.077V415.923L102.651 427.845L82 415.923V392.077Z" stroke="#96DCFB" stroke-width="2"/>
<path d="M99 194.077L119.651 182.155L140.301 194.077V217.923L119.651 229.845L99 217.923V194.077Z" stroke="#96DCFB" stroke-width="2"/>
<path d="M196.981 151.462L220.737 149.393L234.406 168.931L224.32 190.538L200.565 192.607L186.895 173.069L196.981 151.462Z" stroke="#96DCFB" stroke-width="2"/>
<path d="M5.70634 156.621L20.5772 137.981L44.1555 141.54L52.863 163.738L37.9921 182.378L14.4138 178.82L5.70634 156.621Z" stroke="#96DCFB" stroke-width="2"/>
<path d="M20.7063 277.621L35.5772 258.981L59.1555 262.54L67.863 284.738L52.9921 303.378L29.4138 299.82L20.7063 277.621Z" stroke="#96DCFB" stroke-width="2"/>
<path d="M108.35 284.573L123.772 266.386L147.234 270.649L155.273 293.098L139.85 311.285L116.389 307.022L108.35 284.573Z" stroke="#96DCFB" stroke-width="2"/>
<path d="M38.1073 338.479L61.9131 339.852L72.6272 361.155L59.5355 381.085L35.7298 379.712L25.0156 358.409L38.1073 338.479Z" stroke="#96DCFB" stroke-width="2"/>
<path d="M12 446.077L32.6507 434.155L53.3013 446.077V469.923L32.6507 481.845L12 469.923V446.077Z" stroke="#96DCFB" stroke-width="2"/>
<path d="M189.924 319.35L206.784 336.212L200.611 359.244L177.578 365.415L160.718 348.552L166.891 325.52L189.924 319.35Z" stroke="#96DCFB" stroke-width="2"/>
<path d="M245 450.077L265.651 438.155L286.301 450.077V473.923L265.651 485.845L245 473.923V450.077Z" stroke="#96DCFB" stroke-width="2"/>
<path d="M338 271.077L358.651 259.155L379.301 271.077V294.923L358.651 306.845L338 294.923V271.077Z" stroke="#96DCFB" stroke-width="2"/>
<path d="M197.313 228.214L221.044 230.546L230.89 252.264L217.005 271.649L193.274 269.317L183.428 247.599L197.313 228.214Z" stroke="#96DCFB" stroke-width="2"/>
<path d="M388 450.077L408.651 438.155L429.301 450.077V473.923L408.651 485.845L388 473.923V450.077Z" stroke="#96DCFB" stroke-width="2"/>
<path d="M426 240.077L446.651 228.155L467.301 240.077V263.923L446.651 275.845L426 263.923V240.077Z" stroke="#96DCFB" stroke-width="2"/>
<path d="M438 333.077L458.651 321.155L479.301 333.077V356.923L458.651 368.845L438 356.923V333.077Z" stroke="#96DCFB" stroke-width="2"/>
<path d="M267 197.077L287.651 185.155L308.301 197.077V220.923L287.651 232.845L267 220.923V197.077Z" stroke="#96DCFB" stroke-width="2"/>
<path d="M435.304 163.359L449.2 143.981L472.93 146.326L482.763 168.049L468.868 187.427L445.138 185.082L435.304 163.359Z" stroke="#96DCFB" stroke-width="2"/>
<path d="M300.834 135.162L311.736 113.955L335.553 112.793L348.468 132.838L337.565 154.045L313.748 155.207L300.834 135.162Z" stroke="#96DCFB" stroke-width="2"/>
<path d="M395 90.0774L415.651 78.1547L436.301 90.0774V113.923L415.651 125.845L395 113.923V90.0774Z" stroke="#96DCFB" stroke-width="2"/>
<path d="M444 21.0774L464.651 9.1547L485.301 21.0774V44.9226L464.651 56.8453L444 44.9226V21.0774Z" stroke="#96DCFB" stroke-width="2"/>
<path d="M307.604 47.0572L294.782 54.4602L300.023 47.9456L307.604 47.0572ZM311.301 22.9682V39.4625L307.144 27.2567L311.301 22.9682ZM306.068 25.493L294.808 11.5551L310.691 20.7248L306.068 25.493ZM277.63 34.6085L304.502 28.3741L298.913 45.5724L277.63 34.6085ZM310.956 44.6508L300.933 45.8252L306.022 30.1669L310.956 44.6508ZM297.953 47.3279L290.725 56.3128L277.737 36.9134L297.953 47.3279ZM304.219 26.3866L276.834 32.74L290.768 9.73649L304.219 26.3866ZM287.777 10.8137L274.914 32.0496L270.262 20.926L287.777 10.8137ZM270 41.3462V25.4833L273.648 34.2079L270 41.3462ZM287.429 54.9852L270.323 45.1091L274.866 36.2206L287.429 54.9852Z" stroke="#96DCFB" stroke-width="2"/>
<path d="M357 28.0774L377.651 16.1547L398.301 28.0774V51.9226L377.651 63.8453L357 51.9226V28.0774Z" stroke="#96DCFB" stroke-width="2"/>
</g>
<defs>
<clipPath id="clip0_203_3">
<rect width="500" height="500" fill="white"/>
</clipPath>
</defs>
</svg>
